<svg width="1206" height="1206" viewBox="0 0 1206 1206" fill="none" xmlns="http://www.w3.org/2000/svg">
<g clip-path="url(#clip0_89_154)">
<path d="M101.195 567.243C100.717 561.573 101.047 555.827 100.895 550.186C100.428 532.843 102.629 515.873 114.298 502.042C117.935 497.751 122.092 493.928 126.672 490.661C136.021 484.119 146.93 478.229 156.771 472.404C177.053 460.396 197.869 448.789 218.307 437.085C232.817 428.775 246.265 418.791 263.522 417.576C284.718 415.65 300.37 427.335 318.052 437.473C335.488 447.414 352.857 457.472 370.16 467.644C379.29 473.008 391.002 480.221 400.139 485.01C437.468 504.575 435.139 537.953 434.324 574.368C434.168 581.356 434.711 589.55 434.145 596.758C433.953 595.085 433.779 594.037 433.461 592.412C430.043 587.861 424.182 589.032 419.801 586.681C412.362 582.69 416.294 573.308 415.015 569.163C414.422 570.85 414.94 578.244 414.799 581.228L414.156 582.219C414.074 572.779 414.082 563.339 414.18 553.9C414.27 536.857 415.503 523.411 401.86 510.659C394.95 504.2 379.352 495.795 370.74 490.792L319.248 461.323C306.521 454.079 293.679 445.565 280.504 439.388C263.093 431.225 246.075 444.193 231.722 452.505L196.897 472.639C183.072 480.492 169.318 488.469 155.637 496.569C150.725 499.483 144.506 502.786 139.87 505.897C136.085 508.448 132.686 511.528 129.774 515.044C118.302 529.104 121.346 545.053 120.887 561.985C120.763 566.568 120.939 571.314 121.003 575.91C121.241 591.305 121.306 606.704 121.198 622.102C121.217 630.688 121.513 640.828 121.189 649.308C118.042 640.84 124.814 639.933 112.308 635.364C112.03 635.264 103.77 627.19 102.255 625.871C102.012 617.079 103.165 571.833 101.195 567.243Z" fill="#19527B"/>
<path d="M101.195 567.243C103.165 571.833 102.012 617.08 102.255 625.871C103.77 627.19 112.03 635.264 112.307 635.364C124.814 639.934 118.042 640.84 121.189 649.308C122.035 673.222 116.727 694.374 140.868 709.19C148.284 713.742 155.971 718.011 163.479 722.387C178.522 731.226 193.624 739.964 208.783 748.609C219.908 755.045 240.279 768.13 251.318 773.124C255.854 775.214 260.748 776.409 265.736 776.657C280.539 777.287 290.213 770.267 302.435 763.083L333.428 744.823L374.405 721.091C401.716 705.245 416.301 699.003 414.124 664.69C413.773 659.16 414.151 651.257 414.154 645.516L414.155 582.219L414.799 581.228C414.94 578.244 414.422 570.85 415.015 569.163C416.294 573.308 412.362 582.69 419.801 586.682C424.181 589.032 430.042 587.861 433.461 592.412C433.779 594.037 433.953 595.085 434.145 596.758C434.606 602.558 434.269 613.853 434.272 620.077L434.243 665.131C434.173 680.989 434.051 691.371 425.838 705.516C416.305 721.927 402.802 727.904 387.105 737.097L354.242 756.353L318.147 777.293C309.265 782.469 299.614 788.44 290.233 792.544C277.654 798.05 257.842 798.156 245.302 792.35C227.146 783.947 209.746 772.588 192.407 762.506L150.613 738.186C140.504 732.268 126.798 725.443 118.725 717.387C103.663 702.03 100.801 685.329 101.079 664.825C101.519 632.314 100.425 599.661 101.195 567.243Z" fill="#19527B"/>
<path d="M253.324 664.313C254.703 650.351 263.774 553.16 267.298 547.093C268.447 545.116 270.239 543.641 272.493 543.119C274.752 542.614 277.118 543.07 279.028 544.376C284.946 548.379 287.567 571.713 288.974 579.558C291.411 592.612 294.036 605.626 296.85 618.605C300.164 608.971 307.052 588.782 311.565 580.475C323.258 558.952 333.266 603.689 336.321 610.49L336.635 611.173C352.952 612.745 373.827 612.851 391.154 614.17L393.902 615.095L393.531 615.825C374.73 617.315 351.636 618.787 332.958 618.481C326.541 611.067 323.709 596.31 318.974 586.517C313.383 599.773 309.133 613.487 303.676 626.937C301.715 635.405 290.739 636.406 288.327 627.974C282.873 608.906 280.299 587.226 275.567 568.037C274.42 575.073 273.723 584.154 272.889 591.452L266.943 646.134C265.701 657.682 264.637 672.357 261.54 683.192C255.876 688.68 248.393 688.727 246.157 681.237C239.574 659.178 236.915 634.08 231.138 611.933C227.311 624.405 221.517 636.889 216.709 649.031C213.653 656.752 209.526 657.529 202.98 653.377C200.203 647.748 190 623.528 189.003 618.487C171.921 618.116 148.4 616.956 131.793 615.083C147.002 613.646 175.231 610.902 190.277 612.51C195.191 613.034 205.37 639.839 208.674 646.411C212.814 633.338 218.348 619.523 223.188 606.627C224.541 603.824 226.284 598.778 229.657 597.918C238.857 595.798 240.349 605.196 241.868 611.591C245.845 628.35 248.25 647.188 253.09 663.529L253.324 664.313Z" fill="#19527B"/>
<path d="M391.154 614.171C395.435 614.253 398.867 614.359 403.116 614.772C399.507 615.39 397.161 615.578 393.532 615.826L393.903 615.095L391.154 614.171Z" fill="#19527B"/>
<path d="M1007.48 481.958C1055.28 476.236 1098.68 510.298 1104.5 558.089C1110.31 605.879 1076.33 649.35 1028.54 655.25C980.641 661.162 937.029 627.067 931.205 579.154C925.381 531.239 959.554 487.694 1007.48 481.958ZM1067.24 565.907C1065.84 538.539 1042.52 517.489 1015.15 518.905C987.813 520.32 966.79 543.618 968.186 570.956C969.575 598.295 992.859 619.335 1020.19 617.963C1047.56 616.591 1068.63 593.278 1067.24 565.907Z" fill="#19527B"/>
<path d="M788.063 485.516C803.539 485.494 835.091 484.575 849.459 487.026C869.792 490.459 887.9 501.905 899.73 518.798C925.311 555.336 917.614 611.521 880.286 637.319C854.123 653.549 840.39 651.446 810.652 651.435L765.434 651.347C764.698 596.682 765.262 540.279 765.368 485.547C772.77 485.85 780.626 485.608 788.063 485.516ZM846.473 523.334C839.241 521.182 830.72 521.289 823.194 521.442L803.326 521.65C803.933 548.337 803.056 575.236 803.427 601.952C803.486 606.404 803.491 610.961 803.25 615.401C817.983 615.413 838.647 617.233 851.761 611.333C876.764 598.608 883.524 567.616 871.022 543.699C865.899 533.895 857.055 526.557 846.473 523.334Z" fill="#19527B"/>
<path d="M600.827 485.44L630.494 485.703C633.939 489.892 637.107 494.072 640.275 498.468C659.331 524.913 678.81 551.04 698.143 577.281C698.402 569.837 697.954 560.694 697.984 552.936C698.09 530.476 698.078 508.016 697.954 485.556C709.49 486.03 723.829 485.662 735.642 485.705C735.86 518.374 735.872 551.044 735.671 583.714C735.624 605.821 736.154 628.592 735.589 650.616C733.587 651.941 710.527 651.387 706.369 651.376C694.598 636.772 682.455 618.493 671.232 603.094C660.414 588.261 648.507 572.669 638.638 557.303C638.932 588.678 638.985 620.054 638.785 651.434C626.419 651.199 613.393 651.358 601.027 651.423C600.479 630.6 600.738 608.948 600.75 588.053L600.827 485.44Z" fill="#19527B"/>
<path d="M548.011 485.511C557.557 485.407 567.471 485.591 577.047 485.634C577.219 497.591 577.257 509.549 577.16 521.506C554.612 521.001 530.277 521.181 507.684 521.427C507.624 530.872 507.644 540.318 507.746 549.762C526.849 548.886 550.562 549.577 570.051 549.683C570.242 561.45 570.303 573.221 570.234 584.99C549.749 585.398 528.439 584.792 507.716 585.064L507.68 615.395H558.664L578.397 615.413C578.464 627.432 578.456 639.457 578.374 651.475C542.108 651.228 505.842 651.181 469.576 651.352C469.882 647.235 469.572 639.639 469.555 635.281L469.49 602.523C469.449 563.927 469.019 524.235 469.778 485.747L548.011 485.511Z" fill="#19527B"/>
<path d="M538.578 670.337C543.081 670.673 548.992 670.614 553.602 670.696C548.07 686.201 540.231 714.549 536.487 730.778C531.279 730.59 526.067 730.56 520.856 730.69C517.433 718.606 514.263 706.211 510.67 694.245C507.178 705.192 503.19 719.719 500.529 730.802L485.13 730.69C481.377 719.79 477.754 704.78 474.524 693.226C472.517 685.689 470.471 678.157 468.385 670.637L482.518 670.661C485.516 683.498 490.107 700.581 493.685 713.242C495.852 701.217 500.783 682.344 505.031 670.702L516.15 670.684L528.314 711.834L538.578 670.337Z" fill="#19527B"/>
<path d="M1060.1 670.02C1075.23 670.42 1100.73 665.038 1101.38 686.349C1101.55 691.807 1098.04 695.376 1094.56 698.933C1104.14 705.41 1106.02 711.658 1101.85 722.587C1101.26 723.293 1100.65 723.989 1100.03 724.666C1091.87 733.458 1072.62 730.143 1060.04 730.549L1060.1 670.02ZM1094.29 704.768C1088.47 700.84 1073.5 702.359 1066.26 702.383C1066.16 709.797 1066.17 717.587 1065.89 724.966C1074.42 724.93 1088.35 726.35 1094.77 721.992C1098.67 717.423 1099.24 708.107 1094.29 704.768ZM1095.57 685.435C1095.33 672.038 1075.38 675.854 1065.88 675.406L1066.09 696.535C1074.59 696.529 1085.84 697.795 1092.79 693.673C1095.23 690.846 1095.64 689.227 1095.57 685.435Z" fill="#19527B"/>
<path d="M689.846 670.496L700.593 670.632C708.572 681.985 717.017 692.467 724.342 704.238C724.225 693.091 724.36 681.755 724.389 670.59L738.104 670.632C738.787 688.274 738.181 712.541 738.145 730.543C736.685 730.996 729.895 730.884 727.905 730.896C722.01 724.266 709.591 705.805 703.767 697.702C703.602 708.666 703.655 719.802 703.608 730.778C699.098 730.714 694.504 730.755 689.982 730.755C689.499 710.71 689.994 690.606 689.846 670.496Z" fill="#19527B"/>
<path d="M813.526 669.142C824.697 668.759 830.974 673.176 836.598 682.427C833.029 684.723 829.437 686.979 825.816 689.181C822.012 684.07 817.177 680.707 810.058 683.063C808.485 683.581 808.15 684.594 807.579 685.984C808.538 697.861 838.906 693.056 838.323 712.277C837.829 728.494 827.753 731.868 813.709 732.145C802.626 731.344 795.672 727.528 791.385 716.917C794.588 714.785 799.376 712.206 802.815 710.227C805.317 714.479 806.124 715.545 810.246 718.236C815.505 718.866 823.354 720.456 824.279 713.472C821.376 706.476 807.049 706.282 801.16 701.312C786.05 688.563 794.523 671.397 813.526 669.142Z" fill="#19527B"/>
<path d="M863.061 669.088C874.444 668.564 881.587 672.987 886.857 682.868L875.84 689.298C874.085 686.755 871.983 683.18 868.591 682.621C864.127 681.885 858.191 682.002 857.561 687.779C860.447 694.38 877.094 695.069 883.412 701.8C890.921 709.797 889.719 718.253 882.983 726.285C878.319 731.844 869.339 732.021 862.896 731.991C851.408 730.06 846.249 728.081 841.126 717.14L853.315 710.021C853.427 710.244 853.545 710.468 853.663 710.686L854.234 711.734C857.862 718.441 865.982 721.568 873.196 717.222C874.091 716.681 874.562 714.59 874.356 713.548C873.313 708.248 866.365 707.536 862.19 705.999C858.15 704.892 855.094 703.514 851.425 701.564C841.909 696.524 841.88 685.771 846.92 677.315C850.065 672.039 857.108 670.095 863.061 669.088Z" fill="#19527B"/>
<path d="M558.763 670.561L597 670.696L596.994 683.492C589.38 683.115 580.106 683.304 572.36 683.268C572.377 686.843 572.631 689.834 572.931 693.397C580.144 693.532 587.357 693.626 594.573 693.691L594.45 706.67C590.793 706.629 574.73 705.957 572.487 707.406L572.537 717.723C580.756 717.605 589.25 717.752 597.488 717.788C597.482 722.134 597.424 726.479 597.318 730.825L558.85 730.784L558.763 670.561Z" fill="#19527B"/>
<path d="M748.291 670.614C760.481 670.272 773.907 670.62 786.185 670.69L786.291 683.516C778.182 683.528 769.82 683.286 761.688 683.145C761.9 686.543 761.965 690.205 762.077 693.627C769.196 693.403 777.134 693.562 784.312 693.556C784.271 697.914 784.277 702.277 784.33 706.635C780.644 706.611 764.167 706.081 762.006 707.394L762.159 717.7L786.786 717.747C786.868 721.975 786.733 726.603 786.697 730.861L748.227 730.749L748.291 670.614Z" fill="#19527B"/>
<path d="M604.99 670.549L618.829 670.479L618.946 717.57C625.948 717.818 634.069 717.629 641.153 717.629C641.206 722.116 641.276 726.327 641.035 730.802L605.314 730.796L604.99 670.549Z" fill="#19527B"/>
<path d="M647.341 670.607L660.897 670.69C661.026 686.365 661.044 702.041 660.95 717.717C668.523 717.67 676.09 717.664 683.657 717.699L683.745 730.796L647.594 730.766C647.218 710.715 647.129 690.658 647.341 670.607Z" fill="#19527B"/>
<path d="M921.071 669.136C930.628 668.529 938.584 670.985 945.786 677.516C948.082 679.594 949.378 681.614 948.477 684.782C947.116 686.125 947.906 685.842 946.245 686.072C942.853 685.23 941.045 680.86 938.077 678.899C926.5 671.238 912.173 673.912 904.212 685.271C899.948 691.354 898.447 698.944 900.06 706.187C903.517 722.423 917.178 727.828 932.289 724.566C938.66 721.787 940.886 718.884 945.12 713.725L950.603 716.504C940.839 732.221 919.381 736.685 905.484 725.679C883.366 708.16 892.14 672.958 921.071 669.136Z" fill="#19527B"/>
<path d="M1001.75 669.948C1002.25 669.942 1006.7 669.971 1006.83 670.378C1012.42 686.719 996.829 722.222 1021.8 725.855C1054.27 730.578 1034.91 676.331 1042.82 669.483C1047.6 669.371 1046.99 673.481 1046.98 676.755C1047.14 689.681 1049.74 713.889 1042.28 724.43C1033.75 736.502 1004.57 733.251 1002.52 716.822C1000.69 702.118 1001.67 685.035 1001.75 669.948Z" fill="#19527B"/>
<path d="M960.001 669.589C962.039 669.771 963.77 669.713 965.536 670.684C966.255 674.865 965.954 684.717 965.954 689.375C966.007 701.264 965.954 713.159 965.801 725.048L965.13 726.126L962.992 724.601C961.338 725.096 961.956 724.624 961.037 726.026C961.355 727.345 961.579 728.146 961.444 729.5L960.325 730.107C959.76 726.473 960.031 714.631 960.025 710.262L960.001 669.589Z" fill="#19527B"/>
<path d="M965.801 725.049C970.329 724.683 991.699 723.665 994.443 725.95C995.185 726.568 995.232 727.151 995.538 728.017C995.02 730.089 995.591 729.347 993.919 730.419C989.667 730.672 962.126 731.096 960.324 730.107L961.443 729.5C961.578 728.146 961.355 727.345 961.037 726.026C961.955 724.625 961.337 725.096 962.992 724.601L965.129 726.126L965.801 725.049Z" fill="#19527B"/>
</g>
<defs>
<clipPath id="clip0_89_154">
<rect width="1206" height="1206" fill="white"/>
</clipPath>
</defs>
</svg>
