<svg width="1200" height="1500" viewBox="0 0 1200 1500" fill="none" xmlns="http://www.w3.org/2000/svg">
  <rect width="1200" height="1500" fill="#EEE8DE"/>
  <circle cx="1002" cy="246" r="246" fill="#D7E8DF"/>
  <circle cx="272" cy="236" r="188" fill="#D98E62" fill-opacity="0.18"/>
  <rect x="88" y="100" width="1024" height="1300" rx="42" fill="#FBF6EF" stroke="#274137" stroke-opacity="0.12"/>
  <rect x="150" y="166" width="900" height="1170" rx="28" fill="#F9F1E6"/>
  <rect x="218" y="240" width="764" height="356" rx="32" fill="#EFE2D3"/>
  <rect x="218" y="644" width="764" height="480" rx="32" fill="#FDF9F3"/>
  <ellipse cx="600" cy="920" rx="204" ry="116" fill="#D7E8DF"/>
  <ellipse cx="600" cy="920" rx="126" ry="62" fill="#FBF6EF"/>
  <rect x="286" y="766" width="96" height="210" rx="44" fill="#145847"/>
  <rect x="818" y="766" width="96" height="210" rx="44" fill="#145847"/>
  <rect x="368" y="290" width="468" height="72" rx="20" fill="#FBF6EF"/>
  <rect x="278" y="388" width="650" height="120" rx="24" fill="#FFFFFF" fill-opacity="0.66"/>
  <circle cx="288" cy="1168" r="58" fill="#C16D43" fill-opacity="0.92"/>
  <path d="M288 1106C301 1126 307 1141 307 1157C307 1183 289 1198 288 1198C287 1198 269 1183 269 1157C269 1141 275 1126 288 1106Z" fill="#F9F1E6"/>
  <rect x="382" y="1136" width="378" height="18" rx="9" fill="#274137" fill-opacity="0.14"/>
  <rect x="382" y="1174" width="266" height="18" rx="9" fill="#274137" fill-opacity="0.12"/>
  <text x="220" y="130" fill="#274137" font-family="Georgia, serif" font-size="44" letter-spacing="5">NUTRITION LOUNGE</text>
  <text x="220" y="1278" fill="#5B645D" font-family="Arial, sans-serif" font-size="24" letter-spacing="3">CONSULTS · FUELING STRATEGY · HABIT COACHING</text>
</svg>
