<svg width="1200" height="1500" viewBox="0 0 1200 1500" fill="none" xmlns="http://www.w3.org/2000/svg">
  <rect width="1200" height="1500" fill="#EEE8DE"/>
  <rect x="78" y="90" width="1044" height="1320" rx="40" fill="#F9F3EB" stroke="#274137" stroke-opacity="0.12"/>
  <rect x="138" y="154" width="924" height="1192" rx="28" fill="#F2EADF"/>
  <rect x="178" y="214" width="844" height="284" rx="24" fill="#E1D4C6"/>
  <rect x="178" y="540" width="844" height="610" rx="24" fill="#FBF6EF"/>
  <g stroke="#274137" stroke-width="16" stroke-linecap="round" stroke-linejoin="round">
    <path d="M292 1044V628"/>
    <path d="M470 1044V628"/>
    <path d="M730 1044V628"/>
    <path d="M908 1044V628"/>
    <path d="M234 684H528"/>
    <path d="M672 684H966"/>
    <path d="M234 998H528"/>
    <path d="M672 998H966"/>
  </g>
  <g fill="#183A68">
    <rect x="214" y="724" width="48" height="236" rx="20"/>
    <rect x="500" y="724" width="48" height="236" rx="20"/>
    <rect x="652" y="724" width="48" height="236" rx="20"/>
    <rect x="938" y="724" width="48" height="236" rx="20"/>
  </g>
  <g fill="#C16D43" fill-opacity="0.88">
    <circle cx="380" cy="786" r="44"/>
    <circle cx="380" cy="896" r="44"/>
    <circle cx="820" cy="786" r="44"/>
    <circle cx="820" cy="896" r="44"/>
  </g>
  <rect x="220" y="244" width="250" height="160" rx="20" fill="#FBF6EF"/>
  <rect x="504" y="244" width="250" height="160" rx="20" fill="#D8E4F4"/>
  <rect x="788" y="244" width="190" height="160" rx="20" fill="#FBF6EF"/>
  <text x="192" y="128" fill="#274137" font-family="Georgia, serif" font-size="44" letter-spacing="5">STRENGTH FLOOR</text>
  <text x="192" y="1246" fill="#5B645D" font-family="Arial, sans-serif" font-size="24" letter-spacing="3">RACKS · MACHINES · POWERLIFTING LANES</text>
</svg>
